<svg xmlns="http://www.w3.org/2000/svg" xmlns:xlink="http://www.w3.org/1999/xlink" width="60" zoomAndPan="magnify" viewBox="0 0 45 44.999999" height="60" preserveAspectRatio="xMidYMid meet" version="1.2"><defs><clipPath id="ead1723baf"><path d="M 1.816406 1.816406 L 43.066406 1.816406 L 43.066406 43.066406 L 1.816406 43.066406 Z M 1.816406 1.816406 "/></clipPath></defs><g id="dccb5006f3"><g clip-rule="nonzero" clip-path="url(#ead1723baf)"><path style=" stroke:none;fill-rule:nonzero;fill:#2d3443;fill-opacity:1;" d="M 22.441406 1.816406 C 21.765625 1.816406 21.09375 1.851562 20.421875 1.917969 C 19.75 1.984375 19.082031 2.082031 18.417969 2.214844 C 17.753906 2.34375 17.101562 2.507812 16.453125 2.707031 C 15.808594 2.902344 15.171875 3.128906 14.550781 3.386719 C 13.925781 3.644531 13.316406 3.933594 12.71875 4.253906 C 12.125 4.570312 11.546875 4.917969 10.984375 5.292969 C 10.421875 5.667969 9.878906 6.070312 9.359375 6.5 C 8.835938 6.925781 8.335938 7.378906 7.859375 7.859375 C 7.378906 8.335938 6.925781 8.835938 6.5 9.359375 C 6.070312 9.878906 5.667969 10.421875 5.292969 10.984375 C 4.917969 11.546875 4.570312 12.125 4.253906 12.71875 C 3.933594 13.316406 3.644531 13.925781 3.386719 14.550781 C 3.128906 15.171875 2.902344 15.808594 2.707031 16.453125 C 2.507812 17.101562 2.34375 17.753906 2.214844 18.417969 C 2.082031 19.082031 1.984375 19.75 1.917969 20.421875 C 1.851562 21.09375 1.816406 21.765625 1.816406 22.441406 C 1.816406 23.117188 1.851562 23.792969 1.917969 24.464844 C 1.984375 25.136719 2.082031 25.804688 2.214844 26.464844 C 2.34375 27.128906 2.507812 27.78125 2.707031 28.429688 C 2.902344 29.074219 3.128906 29.710938 3.386719 30.335938 C 3.644531 30.960938 3.933594 31.570312 4.253906 32.164062 C 4.570312 32.761719 4.917969 33.339844 5.292969 33.902344 C 5.667969 34.460938 6.070312 35.003906 6.5 35.527344 C 6.925781 36.046875 7.378906 36.546875 7.859375 37.027344 C 8.335938 37.503906 8.835938 37.957031 9.359375 38.386719 C 9.878906 38.8125 10.421875 39.214844 10.984375 39.589844 C 11.546875 39.964844 12.125 40.3125 12.71875 40.632812 C 13.316406 40.949219 13.925781 41.238281 14.550781 41.496094 C 15.171875 41.753906 15.808594 41.984375 16.453125 42.179688 C 17.101562 42.375 17.753906 42.539062 18.417969 42.671875 C 19.082031 42.800781 19.75 42.902344 20.421875 42.96875 C 21.09375 43.035156 21.765625 43.066406 22.441406 43.066406 C 23.117188 43.066406 23.792969 43.035156 24.464844 42.96875 C 25.136719 42.902344 25.804688 42.800781 26.464844 42.671875 C 27.128906 42.539062 27.78125 42.375 28.429688 42.179688 C 29.074219 41.984375 29.710938 41.753906 30.335938 41.496094 C 30.960938 41.238281 31.570312 40.949219 32.164062 40.632812 C 32.761719 40.3125 33.339844 39.964844 33.902344 39.589844 C 34.460938 39.214844 35.003906 38.8125 35.527344 38.386719 C 36.046875 37.957031 36.546875 37.503906 37.027344 37.027344 C 37.503906 36.546875 37.957031 36.046875 38.386719 35.527344 C 38.8125 35.003906 39.214844 34.460938 39.589844 33.902344 C 39.964844 33.339844 40.3125 32.761719 40.632812 32.164062 C 40.949219 31.570312 41.238281 30.960938 41.496094 30.335938 C 41.753906 29.710938 41.984375 29.074219 42.179688 28.429688 C 42.375 27.78125 42.539062 27.128906 42.671875 26.464844 C 42.800781 25.804688 42.902344 25.136719 42.96875 24.464844 C 43.035156 23.792969 43.066406 23.117188 43.066406 22.441406 C 43.066406 21.765625 43.035156 21.09375 42.96875 20.421875 C 42.902344 19.75 42.800781 19.082031 42.671875 18.417969 C 42.539062 17.757812 42.375 17.101562 42.179688 16.457031 C 41.980469 15.808594 41.753906 15.171875 41.496094 14.550781 C 41.238281 13.925781 40.949219 13.316406 40.632812 12.71875 C 40.3125 12.125 39.964844 11.546875 39.589844 10.984375 C 39.214844 10.421875 38.8125 9.878906 38.382812 9.359375 C 37.957031 8.835938 37.503906 8.335938 37.027344 7.859375 C 36.546875 7.382812 36.046875 6.929688 35.527344 6.5 C 35.003906 6.070312 34.460938 5.667969 33.898438 5.292969 C 33.339844 4.917969 32.761719 4.570312 32.164062 4.253906 C 31.570312 3.933594 30.957031 3.644531 30.335938 3.386719 C 29.710938 3.128906 29.074219 2.902344 28.429688 2.707031 C 27.78125 2.507812 27.128906 2.34375 26.464844 2.214844 C 25.804688 2.082031 25.136719 1.984375 24.464844 1.917969 C 23.792969 1.851562 23.117188 1.816406 22.441406 1.816406 Z M 12.941406 12.265625 L 31.941406 12.265625 C 32.347656 12.265625 32.742188 12.335938 33.121094 12.476562 C 33.5 12.617188 33.84375 12.820312 34.152344 13.082031 C 34.460938 13.347656 34.710938 13.65625 34.910156 14.011719 C 35.105469 14.367188 35.234375 14.746094 35.292969 15.144531 C 35.023438 15.292969 24.582031 21.3125 23.890625 21.707031 C 23.441406 21.960938 22.960938 22.089844 22.441406 22.089844 C 21.925781 22.089844 21.441406 21.960938 20.992188 21.707031 C 20.316406 21.320312 9.847656 15.359375 9.589844 15.199219 C 9.644531 14.792969 9.769531 14.410156 9.960938 14.046875 C 10.15625 13.6875 10.40625 13.371094 10.714844 13.101562 C 11.023438 12.832031 11.367188 12.625 11.753906 12.480469 C 12.136719 12.335938 12.53125 12.265625 12.941406 12.265625 Z M 35.332031 29.230469 C 35.332031 29.679688 35.246094 30.109375 35.074219 30.527344 C 34.902344 30.941406 34.65625 31.308594 34.339844 31.625 C 34.019531 31.941406 33.65625 32.1875 33.238281 32.359375 C 32.824219 32.53125 32.390625 32.617188 31.941406 32.621094 L 12.941406 32.621094 C 12.492188 32.617188 12.058594 32.53125 11.644531 32.359375 C 11.230469 32.1875 10.863281 31.941406 10.546875 31.625 C 10.226562 31.308594 9.984375 30.941406 9.8125 30.527344 C 9.636719 30.109375 9.550781 29.679688 9.550781 29.230469 L 9.550781 16.738281 L 20.328125 22.886719 C 20.984375 23.261719 21.691406 23.449219 22.445312 23.449219 C 23.199219 23.449219 23.90625 23.261719 24.5625 22.886719 L 35.332031 16.6875 Z M 35.332031 29.230469 "/></g></g></svg>