<svg xmlns="http://www.w3.org/2000/svg" width="60" height="60" viewBox="0 0 45 45" preserveAspectRatio="xMidYMid meet">
  <path style="stroke:#2d3443;stroke-width:2;fill:none;" d="M 12.941406 12.265625 L 31.941406 12.265625 C 32.347656 12.265625 32.742188 12.335938 33.121094 12.476562 C 33.5 12.617188 33.84375 12.820312 34.152344 13.082031 C 34.460938 13.347656 34.710938 13.65625 34.910156 14.011719 C 35.105469 14.367188 35.234375 14.746094 35.292969 15.144531 C 35.023438 15.292969 24.582031 21.3125 23.890625 21.707031 C 23.441406 21.960938 22.960938 22.089844 22.441406 22.089844 C 21.925781 22.089844 21.441406 21.960938 20.992188 21.707031 C 20.316406 21.320312 9.847656 15.359375 9.589844 15.199219 C 9.644531 14.792969 9.769531 14.410156 9.960938 14.046875 C 10.15625 13.6875 10.40625 13.371094 10.714844 13.101562 C 11.023438 12.832031 11.367188 12.625 11.753906 12.480469 C 12.136719 12.335938 12.53125 12.265625 12.941406 12.265625 Z M 35.332031 29.230469 C 35.332031 29.679688 35.246094 30.109375 35.074219 30.527344 C 34.902344 30.941406 34.65625 31.308594 34.339844 31.625 C 34.019531 31.941406 33.65625 32.1875 33.238281 32.359375 C 32.824219 32.53125 32.390625 32.617188 31.941406 32.621094 L 12.941406 32.621094 C 12.492188 32.617188 12.058594 32.53125 11.644531 32.359375 C 11.230469 32.1875 10.863281 31.941406 10.546875 31.625 C 10.226562 31.308594 9.984375 30.941406 9.8125 30.527344 C 9.636719 30.109375 9.550781 29.679688 9.550781 29.230469 L 9.550781 16.738281 L 20.328125 22.886719 C 20.984375 23.261719 21.691406 23.449219 22.445312 23.449219 C 23.199219 23.449219 23.90625 23.261719 24.5625 22.886719 L 35.332031 16.6875 Z"/>
</svg>