<svg xmlns="http://www.w3.org/2000/svg" xmlns:xlink="http://www.w3.org/1999/xlink" width="60" zoomAndPan="magnify" viewBox="0 0 45 44.999999" height="60" preserveAspectRatio="xMidYMid meet" version="1.2"><defs><clipPath id="09db2371fc"><path d="M 1.890625 1.890625 L 43.140625 1.890625 L 43.140625 43.140625 L 1.890625 43.140625 Z M 1.890625 1.890625 "/></clipPath></defs><g id="c45a26384c"><path style=" stroke:none;fill-rule:nonzero;fill:#2d3443;fill-opacity:1;" d="M 17.386719 19.175781 C 17.386719 19.511719 17.417969 19.84375 17.484375 20.175781 C 17.550781 20.503906 17.648438 20.824219 17.777344 21.132812 C 17.902344 21.445312 18.0625 21.738281 18.246094 22.015625 C 18.433594 22.296875 18.648438 22.554688 18.882812 22.792969 C 19.121094 23.03125 19.378906 23.242188 19.660156 23.429688 C 19.9375 23.613281 20.234375 23.773438 20.542969 23.902344 C 20.851562 24.027344 21.171875 24.125 21.503906 24.191406 C 21.832031 24.257812 22.164062 24.289062 22.5 24.289062 C 22.835938 24.289062 23.167969 24.257812 23.496094 24.191406 C 23.828125 24.125 24.144531 24.027344 24.457031 23.902344 C 24.765625 23.773438 25.0625 23.613281 25.339844 23.429688 C 25.621094 23.242188 25.878906 23.03125 26.113281 22.792969 C 26.351562 22.554688 26.566406 22.296875 26.75 22.015625 C 26.9375 21.738281 27.09375 21.445312 27.222656 21.132812 C 27.351562 20.824219 27.449219 20.503906 27.515625 20.175781 C 27.578125 19.84375 27.613281 19.511719 27.613281 19.175781 C 27.335938 12.390625 17.664062 12.390625 17.386719 19.175781 Z M 22.5 22.929688 C 22 22.929688 21.523438 22.835938 21.0625 22.644531 C 20.601562 22.453125 20.195312 22.179688 19.84375 21.828125 C 19.492188 21.476562 19.21875 21.070312 19.03125 20.609375 C 18.839844 20.148438 18.746094 19.667969 18.746094 19.171875 C 18.746094 18.671875 18.839844 18.191406 19.03125 17.730469 C 19.222656 17.273438 19.496094 16.867188 19.847656 16.515625 C 20.199219 16.160156 20.605469 15.890625 21.066406 15.699219 C 21.527344 15.511719 22.007812 15.414062 22.507812 15.414062 C 23.003906 15.417969 23.484375 15.511719 23.945312 15.703125 C 24.402344 15.894531 24.808594 16.164062 25.160156 16.519531 C 25.515625 16.871094 25.785156 17.277344 25.976562 17.738281 C 26.164062 18.199219 26.261719 18.679688 26.261719 19.175781 C 26.261719 19.675781 26.164062 20.152344 25.972656 20.613281 C 25.78125 21.074219 25.511719 21.480469 25.15625 21.832031 C 24.804688 22.183594 24.398438 22.457031 23.9375 22.644531 C 23.476562 22.835938 22.996094 22.929688 22.5 22.929688 Z M 22.5 22.929688 "/><g clip-rule="nonzero" clip-path="url(#09db2371fc)"><path style=" stroke:none;fill-rule:nonzero;fill:#2d3443;fill-opacity:1;" d="M 22.5 1.890625 C 21.824219 1.890625 21.152344 1.925781 20.480469 1.992188 C 19.808594 2.058594 19.140625 2.15625 18.480469 2.289062 C 17.816406 2.417969 17.164062 2.582031 16.515625 2.78125 C 15.871094 2.976562 15.238281 3.203125 14.613281 3.460938 C 13.988281 3.71875 13.378906 4.007812 12.785156 4.324219 C 12.191406 4.644531 11.613281 4.988281 11.050781 5.363281 C 10.488281 5.738281 9.949219 6.140625 9.425781 6.570312 C 8.90625 6.996094 8.40625 7.449219 7.929688 7.929688 C 7.449219 8.40625 6.996094 8.90625 6.570312 9.425781 C 6.140625 9.949219 5.738281 10.488281 5.363281 11.050781 C 4.988281 11.613281 4.644531 12.191406 4.324219 12.785156 C 4.007812 13.378906 3.71875 13.988281 3.460938 14.613281 C 3.203125 15.238281 2.976562 15.871094 2.78125 16.515625 C 2.582031 17.164062 2.417969 17.816406 2.289062 18.480469 C 2.15625 19.140625 2.058594 19.808594 1.992188 20.480469 C 1.925781 21.152344 1.890625 21.824219 1.890625 22.5 C 1.890625 23.175781 1.925781 23.847656 1.992188 24.519531 C 2.058594 25.191406 2.15625 25.859375 2.289062 26.519531 C 2.417969 27.183594 2.582031 27.835938 2.78125 28.480469 C 2.976562 29.128906 3.203125 29.761719 3.460938 30.386719 C 3.71875 31.007812 4.007812 31.617188 4.324219 32.214844 C 4.644531 32.808594 4.988281 33.386719 5.363281 33.949219 C 5.738281 34.507812 6.140625 35.050781 6.570312 35.574219 C 6.996094 36.09375 7.449219 36.59375 7.929688 37.070312 C 8.40625 37.546875 8.90625 38 9.425781 38.429688 C 9.949219 38.855469 10.488281 39.257812 11.050781 39.632812 C 11.613281 40.007812 12.191406 40.355469 12.785156 40.671875 C 13.378906 40.992188 13.988281 41.28125 14.613281 41.539062 C 15.238281 41.796875 15.871094 42.023438 16.515625 42.21875 C 17.164062 42.414062 17.816406 42.578125 18.480469 42.710938 C 19.140625 42.84375 19.808594 42.941406 20.480469 43.007812 C 21.152344 43.074219 21.824219 43.105469 22.5 43.105469 C 23.175781 43.105469 23.847656 43.074219 24.519531 43.007812 C 25.191406 42.941406 25.859375 42.84375 26.519531 42.710938 C 27.183594 42.578125 27.835938 42.414062 28.480469 42.21875 C 29.128906 42.023438 29.761719 41.796875 30.386719 41.539062 C 31.007812 41.28125 31.617188 40.992188 32.214844 40.671875 C 32.808594 40.355469 33.386719 40.007812 33.949219 39.632812 C 34.507812 39.257812 35.050781 38.855469 35.574219 38.429688 C 36.09375 38 36.59375 37.546875 37.070312 37.070312 C 37.546875 36.59375 38 36.09375 38.429688 35.574219 C 38.855469 35.050781 39.257812 34.507812 39.632812 33.949219 C 40.007812 33.386719 40.355469 32.808594 40.671875 32.214844 C 40.992188 31.617188 41.28125 31.007812 41.539062 30.386719 C 41.796875 29.761719 42.023438 29.128906 42.21875 28.480469 C 42.414062 27.835938 42.578125 27.183594 42.710938 26.519531 C 42.84375 25.859375 42.941406 25.191406 43.007812 24.519531 C 43.074219 23.847656 43.105469 23.175781 43.105469 22.5 C 43.105469 21.824219 43.074219 21.152344 43.007812 20.480469 C 42.941406 19.808594 42.84375 19.140625 42.710938 18.480469 C 42.578125 17.816406 42.414062 17.164062 42.21875 16.519531 C 42.023438 15.871094 41.796875 15.238281 41.539062 14.613281 C 41.277344 13.992188 40.992188 13.382812 40.671875 12.785156 C 40.355469 12.191406 40.007812 11.613281 39.632812 11.050781 C 39.257812 10.488281 38.855469 9.949219 38.429688 9.425781 C 38 8.90625 37.546875 8.40625 37.070312 7.929688 C 36.59375 7.453125 36.09375 7 35.570312 6.570312 C 35.050781 6.140625 34.507812 5.742188 33.949219 5.367188 C 33.386719 4.992188 32.808594 4.644531 32.214844 4.324219 C 31.617188 4.007812 31.007812 3.71875 30.386719 3.460938 C 29.761719 3.203125 29.128906 2.976562 28.480469 2.78125 C 27.835938 2.585938 27.179688 2.421875 26.519531 2.289062 C 25.859375 2.15625 25.191406 2.058594 24.519531 1.992188 C 23.847656 1.925781 23.175781 1.890625 22.5 1.890625 Z M 22.910156 35.238281 C 22.789062 35.332031 22.652344 35.378906 22.5 35.378906 C 22.347656 35.378906 22.207031 35.332031 22.085938 35.238281 C 21.714844 34.953125 12.949219 28.152344 12.949219 19.175781 C 12.949219 18.550781 13.011719 17.929688 13.132812 17.3125 C 13.253906 16.699219 13.433594 16.101562 13.675781 15.519531 C 13.914062 14.941406 14.210938 14.390625 14.558594 13.867188 C 14.90625 13.347656 15.300781 12.863281 15.746094 12.421875 C 16.1875 11.976562 16.671875 11.582031 17.191406 11.234375 C 17.714844 10.882812 18.265625 10.589844 18.84375 10.351562 C 19.421875 10.109375 20.019531 9.929688 20.636719 9.804688 C 21.25 9.683594 21.871094 9.621094 22.5 9.621094 C 23.125 9.621094 23.746094 9.683594 24.363281 9.804688 C 24.976562 9.929688 25.574219 10.109375 26.15625 10.351562 C 26.734375 10.589844 27.285156 10.882812 27.804688 11.234375 C 28.328125 11.582031 28.808594 11.976562 29.253906 12.421875 C 29.695312 12.863281 30.09375 13.347656 30.441406 13.867188 C 30.789062 14.390625 31.082031 14.941406 31.324219 15.519531 C 31.5625 16.101562 31.746094 16.699219 31.867188 17.3125 C 31.988281 17.929688 32.050781 18.550781 32.050781 19.175781 C 32.050781 28.152344 23.285156 34.953125 22.910156 35.238281 Z M 22.910156 35.238281 "/></g></g></svg>