<svg xmlns="http://www.w3.org/2000/svg" width="60" height="60" viewBox="0 0 45 45" preserveAspectRatio="xMidYMid meet">
  <path style="stroke:#2d3443;stroke-width:2;fill:none;" d="M 22.5 9.621094 C 23.125 9.621094 23.746094 9.683594 24.363281 9.804688 C 24.976562 9.929688 25.574219 10.109375 26.15625 10.351562 C 26.734375 10.589844 27.285156 10.882812 27.804688 11.234375 C 28.328125 11.582031 28.808594 11.976562 29.253906 12.421875 C 29.695312 12.863281 30.09375 13.347656 30.441406 13.867188 C 30.789062 14.390625 31.082031 14.941406 31.324219 15.519531 C 31.5625 16.101562 31.746094 16.699219 31.867188 17.3125 C 31.988281 17.929688 32.050781 18.550781 32.050781 19.175781 C 32.050781 28.152344 23.285156 34.953125 22.910156 35.238281 C 22.789062 35.332031 22.652344 35.378906 22.5 35.378906 C 22.347656 35.378906 22.207031 35.332031 22.085938 35.238281 C 21.714844 34.953125 12.949219 28.152344 12.949219 19.175781 C 12.949219 18.550781 13.011719 17.929688 13.132812 17.3125 C 13.253906 16.699219 13.433594 16.101562 13.675781 15.519531 C 13.914062 14.941406 14.210938 14.390625 14.558594 13.867188 C 14.90625 13.347656 15.300781 12.863281 15.746094 12.421875 C 16.1875 11.976562 16.671875 11.582031 17.191406 11.234375 C 17.714844 10.882812 18.265625 10.589844 18.84375 10.351562 C 19.421875 10.109375 20.019531 9.929688 20.636719 9.804688 C 21.25 9.683594 21.871094 9.621094 22.5 9.621094 Z"/>
  <circle style="stroke:#2d3443;stroke-width:2;fill:none;" cx="22.5" cy="19.175" r="4"/>
</svg>