<svg xmlns="http://www.w3.org/2000/svg" xmlns:xlink="http://www.w3.org/1999/xlink" width="60" zoomAndPan="magnify" viewBox="0 0 45 44.999999" height="60" preserveAspectRatio="xMidYMid meet" version="1.2"><defs><clipPath id="769f274d55"><path d="M 1.816406 1.816406 L 43.066406 1.816406 L 43.066406 43.066406 L 1.816406 43.066406 Z M 1.816406 1.816406 "/></clipPath></defs><g id="93afcf31fb"><g clip-rule="nonzero" clip-path="url(#769f274d55)"><path style=" stroke:none;fill-rule:nonzero;fill:#2d3443;fill-opacity:1;" d="M 33.488281 24.238281 C 33.476562 24.238281 33.460938 24.238281 33.445312 24.238281 C 33.078125 24.238281 32.769531 23.949219 32.746094 23.578125 C 32.578125 20.722656 31.398438 18.007812 29.4375 15.933594 C 27.46875 13.859375 24.820312 12.539062 21.980469 12.21875 C 21.59375 12.175781 21.316406 11.828125 21.359375 11.441406 C 21.402344 11.054688 21.753906 10.773438 22.136719 10.820312 C 25.308594 11.179688 28.261719 12.652344 30.457031 14.964844 C 32.648438 17.277344 33.960938 20.308594 34.148438 23.492188 C 34.171875 23.882812 33.875 24.214844 33.488281 24.238281 Z M 21.789062 15.894531 C 21.835938 15.511719 22.179688 15.234375 22.570312 15.277344 C 24.457031 15.492188 26.21875 16.367188 27.523438 17.746094 C 28.828125 19.121094 29.609375 20.925781 29.722656 22.824219 C 29.746094 23.210938 29.449219 23.542969 29.0625 23.566406 C 29.046875 23.570312 29.035156 23.570312 29.019531 23.570312 C 28.652344 23.570312 28.339844 23.28125 28.320312 22.90625 C 28.226562 21.339844 27.582031 19.851562 26.503906 18.710938 C 25.425781 17.574219 23.972656 16.851562 22.410156 16.671875 C 22.023438 16.628906 21.746094 16.28125 21.789062 15.894531 Z M 32.355469 33.308594 C 32.335938 33.328125 31.519531 34.101562 31.496094 34.121094 C 29.984375 35.574219 27.609375 35.863281 25.636719 35.402344 C 24.917969 35.234375 24.21875 34.992188 23.539062 34.695312 C 20.480469 33.367188 17.578125 31.015625 15.25 28.542969 C 12.902344 26.082031 10.710938 23.058594 9.546875 19.933594 C 9.289062 19.242188 9.085938 18.527344 8.957031 17.800781 C 8.597656 15.808594 9.015625 13.449219 10.546875 12.019531 C 10.570312 11.996094 11.382812 11.222656 11.40625 11.203125 C 12.925781 9.871094 14.222656 11.5625 15.433594 12.863281 C 16.46875 13.972656 18.203125 15.800781 17.917969 17.46875 C 17.757812 18.394531 16.773438 19.074219 16.429688 19.980469 C 15.992188 21.140625 16.199219 22.296875 16.929688 23.289062 C 17.421875 23.949219 18.019531 24.65625 18.65625 25.3125 C 19.277344 25.984375 19.949219 26.621094 20.585938 27.144531 C 21.539062 27.929688 22.679688 28.195312 23.859375 27.820312 C 24.785156 27.527344 25.515625 26.582031 26.449219 26.472656 C 28.132812 26.273438 29.863281 28.105469 30.917969 29.195312 C 32.148438 30.476562 33.769531 31.859375 32.355469 33.308594 Z M 22.441406 1.8125 C 11.050781 1.8125 1.816406 11.042969 1.816406 22.433594 C 1.816406 33.824219 11.050781 43.058594 22.441406 43.058594 C 33.832031 43.058594 43.066406 33.824219 43.066406 22.433594 C 43.066406 11.042969 33.832031 1.8125 22.441406 1.8125 "/></g></g></svg>